# xmcd CD Database Entry
#
# Track frame offsets:
# 182
# 46582
# 71092
# 92082
# 124820
# 147595
# 186882
# 217382
#
# Disc length: 3322 seconds
#
# Revision: 3
# Processed by: cddbd v1.4PL0 Copyright (c) Steve Scherf et al.
# Submitted via: tcd 2.0b
#
DISCID=7e0cf808
DTITLE=Trouble Funk - Early Singles
DYEAR=1900
DGENRE=
TTITLE0=Super Grit
TTITLE1=E Flat Boogie
TTITLE2=Hollyrock
TTITLE3=Roll Wit It
TTITLE4=Latin Funk
TTITLE5=Get Down With Your Get Down
TTITLE6=Trouble Funk Express
TTITLE7=So Early In The Morning
EXTD=
EXTT0=
EXTT1=
EXTT2=
EXTT3=
EXTT4=
EXTT5=
EXTT6=
EXTT7=
PLAYORDER=
